<mxfile host="app.diagrams.net" modified="2023-11-20T10:38:28.398Z" agent="Mozilla/5.0 (X11; Linux x86_64) AppleWebKit/537.36 (KHTML, like Gecko) Chrome/118.0.0.0 Safari/537.36" etag="JrVIqj3FLXjE_TzrK8YS" version="22.1.3" type="github">
  <diagram id="R2lEEEUBdFMjLlhIrx00" name="Page-1">
    <mxGraphModel dx="2023" dy="604" grid="1" gridSize="10" guides="1" tooltips="1" connect="1" arrows="1" fold="1" page="1" pageScale="1" pageWidth="850" pageHeight="1100" math="0" shadow="0" extFonts="Permanent Marker^https://fonts.googleapis.com/css?family=Permanent+Marker">
      <root>
        <mxCell id="0" />
        <mxCell id="1" parent="0" />
        <mxCell id="nqBFF6TNOds9ZoNXhfpZ-1" value="AMIS" style="shape=rhombus;perimeter=rhombusPerimeter;whiteSpace=wrap;html=1;align=center;fillColor=#f5f5f5;strokeColor=#666666;gradientColor=#b3b3b3;" parent="1" vertex="1">
          <mxGeometry x="130" y="480" width="120" height="60" as="geometry" />
        </mxCell>
        <mxCell id="5RMD4BezjyQq2ldkv20B-14" style="edgeStyle=orthogonalEdgeStyle;rounded=0;orthogonalLoop=1;jettySize=auto;html=1;entryX=0.75;entryY=0;entryDx=0;entryDy=0;" parent="1" source="nqBFF6TNOds9ZoNXhfpZ-2" target="5RMD4BezjyQq2ldkv20B-1" edge="1">
          <mxGeometry relative="1" as="geometry" />
        </mxCell>
        <mxCell id="nqBFF6TNOds9ZoNXhfpZ-2" value="ASIGNER" style="shape=rhombus;perimeter=rhombusPerimeter;whiteSpace=wrap;html=1;align=center;fillColor=#f5f5f5;strokeColor=#666666;gradientColor=#b3b3b3;" parent="1" vertex="1">
          <mxGeometry x="715" y="370" width="120" height="60" as="geometry" />
        </mxCell>
        <mxCell id="nqBFF6TNOds9ZoNXhfpZ-10" style="edgeStyle=orthogonalEdgeStyle;rounded=0;orthogonalLoop=1;jettySize=auto;html=1;exitX=0;exitY=0.5;exitDx=0;exitDy=0;entryX=0.917;entryY=-0.033;entryDx=0;entryDy=0;entryPerimeter=0;" parent="1" source="nqBFF6TNOds9ZoNXhfpZ-3" target="fBHS-X9BeHUpOfHcf2Rk-1" edge="1">
          <mxGeometry relative="1" as="geometry">
            <mxPoint x="465" y="350" as="targetPoint" />
          </mxGeometry>
        </mxCell>
        <mxCell id="5RMD4BezjyQq2ldkv20B-18" style="edgeStyle=orthogonalEdgeStyle;rounded=0;orthogonalLoop=1;jettySize=auto;html=1;entryX=0;entryY=1;entryDx=0;entryDy=0;" parent="1" source="nqBFF6TNOds9ZoNXhfpZ-3" target="5RMD4BezjyQq2ldkv20B-4" edge="1">
          <mxGeometry relative="1" as="geometry" />
        </mxCell>
        <mxCell id="nqBFF6TNOds9ZoNXhfpZ-3" value="AJOUTER" style="shape=rhombus;perimeter=rhombusPerimeter;whiteSpace=wrap;html=1;align=center;fillColor=#f5f5f5;strokeColor=#666666;gradientColor=#b3b3b3;" parent="1" vertex="1">
          <mxGeometry x="510" y="305" width="120" height="60" as="geometry" />
        </mxCell>
        <mxCell id="5RMD4BezjyQq2ldkv20B-10" style="edgeStyle=orthogonalEdgeStyle;rounded=0;orthogonalLoop=1;jettySize=auto;html=1;entryX=0.5;entryY=1;entryDx=0;entryDy=0;" parent="1" source="nqBFF6TNOds9ZoNXhfpZ-4" target="5RMD4BezjyQq2ldkv20B-8" edge="1">
          <mxGeometry relative="1" as="geometry" />
        </mxCell>
        <mxCell id="5RMD4BezjyQq2ldkv20B-17" style="edgeStyle=orthogonalEdgeStyle;rounded=0;orthogonalLoop=1;jettySize=auto;html=1;entryX=0;entryY=0.25;entryDx=0;entryDy=0;" parent="1" source="nqBFF6TNOds9ZoNXhfpZ-4" target="5RMD4BezjyQq2ldkv20B-3" edge="1">
          <mxGeometry relative="1" as="geometry" />
        </mxCell>
        <mxCell id="nqBFF6TNOds9ZoNXhfpZ-4" value="PARTAGER" style="shape=rhombus;perimeter=rhombusPerimeter;whiteSpace=wrap;html=1;align=center;fillColor=#f5f5f5;strokeColor=#666666;gradientColor=#b3b3b3;" parent="1" vertex="1">
          <mxGeometry x="490" y="205" width="120" height="60" as="geometry" />
        </mxCell>
        <mxCell id="nqBFF6TNOds9ZoNXhfpZ-18" style="edgeStyle=orthogonalEdgeStyle;rounded=0;orthogonalLoop=1;jettySize=auto;html=1;exitX=1;exitY=0.5;exitDx=0;exitDy=0;entryX=0;entryY=0;entryDx=0;entryDy=0;" parent="1" source="nqBFF6TNOds9ZoNXhfpZ-5" target="fBHS-X9BeHUpOfHcf2Rk-1" edge="1">
          <mxGeometry relative="1" as="geometry">
            <mxPoint x="365" y="350" as="targetPoint" />
          </mxGeometry>
        </mxCell>
        <mxCell id="5RMD4BezjyQq2ldkv20B-11" style="edgeStyle=orthogonalEdgeStyle;rounded=0;orthogonalLoop=1;jettySize=auto;html=1;exitX=0;exitY=0.5;exitDx=0;exitDy=0;entryX=1;entryY=0.25;entryDx=0;entryDy=0;" parent="1" source="nqBFF6TNOds9ZoNXhfpZ-5" target="5RMD4BezjyQq2ldkv20B-5" edge="1">
          <mxGeometry relative="1" as="geometry" />
        </mxCell>
        <mxCell id="nqBFF6TNOds9ZoNXhfpZ-5" value="ENVOYER" style="shape=rhombus;perimeter=rhombusPerimeter;whiteSpace=wrap;html=1;align=center;fillColor=#f5f5f5;strokeColor=#666666;gradientColor=#b3b3b3;" parent="1" vertex="1">
          <mxGeometry x="175" y="290" width="120" height="60" as="geometry" />
        </mxCell>
        <mxCell id="nqBFF6TNOds9ZoNXhfpZ-19" value="0,N" style="text;html=1;align=center;verticalAlign=middle;resizable=0;points=[];autosize=1;strokeColor=none;fillColor=none;" parent="1" vertex="1">
          <mxGeometry x="435" y="200" width="40" height="30" as="geometry" />
        </mxCell>
        <mxCell id="nqBFF6TNOds9ZoNXhfpZ-20" value="0,N" style="text;html=1;strokeColor=none;fillColor=none;align=center;verticalAlign=middle;whiteSpace=wrap;rounded=0;" parent="1" vertex="1">
          <mxGeometry x="715" y="320" width="60" height="30" as="geometry" />
        </mxCell>
        <mxCell id="nqBFF6TNOds9ZoNXhfpZ-21" value="1,N" style="text;html=1;strokeColor=none;fillColor=none;align=center;verticalAlign=middle;whiteSpace=wrap;rounded=0;" parent="1" vertex="1">
          <mxGeometry x="615" y="470" width="60" height="30" as="geometry" />
        </mxCell>
        <mxCell id="nqBFF6TNOds9ZoNXhfpZ-23" value="0,N" style="text;html=1;strokeColor=none;fillColor=none;align=center;verticalAlign=middle;whiteSpace=wrap;rounded=0;" parent="1" vertex="1">
          <mxGeometry x="265" y="400" width="60" height="30" as="geometry" />
        </mxCell>
        <mxCell id="nqBFF6TNOds9ZoNXhfpZ-24" value="N,N" style="text;html=1;strokeColor=none;fillColor=none;align=center;verticalAlign=middle;whiteSpace=wrap;rounded=0;" parent="1" vertex="1">
          <mxGeometry x="445" y="300" width="60" height="30" as="geometry" />
        </mxCell>
        <mxCell id="nqBFF6TNOds9ZoNXhfpZ-25" value="0,N" style="text;html=1;strokeColor=none;fillColor=none;align=center;verticalAlign=middle;whiteSpace=wrap;rounded=0;" parent="1" vertex="1">
          <mxGeometry x="635" y="275" width="60" height="30" as="geometry" />
        </mxCell>
        <mxCell id="nqBFF6TNOds9ZoNXhfpZ-26" value="1,1" style="text;html=1;strokeColor=none;fillColor=none;align=center;verticalAlign=middle;whiteSpace=wrap;rounded=0;" parent="1" vertex="1">
          <mxGeometry x="570" y="85" width="60" height="30" as="geometry" />
        </mxCell>
        <mxCell id="nqBFF6TNOds9ZoNXhfpZ-27" value="1,1" style="text;html=1;strokeColor=none;fillColor=none;align=center;verticalAlign=middle;whiteSpace=wrap;rounded=0;" parent="1" vertex="1">
          <mxGeometry x="315" y="305" width="60" height="30" as="geometry" />
        </mxCell>
        <mxCell id="nqBFF6TNOds9ZoNXhfpZ-28" value="0,N" style="text;html=1;strokeColor=none;fillColor=none;align=center;verticalAlign=middle;whiteSpace=wrap;rounded=0;" parent="1" vertex="1">
          <mxGeometry x="115" y="275" width="60" height="30" as="geometry" />
        </mxCell>
        <mxCell id="nqBFF6TNOds9ZoNXhfpZ-30" value="" style="shape=link;html=1;rounded=0;exitX=1;exitY=0.5;exitDx=0;exitDy=0;entryX=0;entryY=0.25;entryDx=0;entryDy=0;" parent="1" source="nqBFF6TNOds9ZoNXhfpZ-1" target="fBHS-X9BeHUpOfHcf2Rk-1" edge="1">
          <mxGeometry relative="1" as="geometry">
            <mxPoint x="335" y="380" as="sourcePoint" />
            <mxPoint x="365" y="370" as="targetPoint" />
          </mxGeometry>
        </mxCell>
        <mxCell id="nqBFF6TNOds9ZoNXhfpZ-31" value="N" style="resizable=0;html=1;whiteSpace=wrap;align=right;verticalAlign=bottom;" parent="nqBFF6TNOds9ZoNXhfpZ-30" connectable="0" vertex="1">
          <mxGeometry x="1" relative="1" as="geometry" />
        </mxCell>
        <mxCell id="5RMD4BezjyQq2ldkv20B-1" value="Rôles" style="swimlane;childLayout=stackLayout;horizontal=1;startSize=50;horizontalStack=0;rounded=1;fontSize=14;fontStyle=0;strokeWidth=2;resizeParent=0;resizeLast=1;shadow=0;dashed=0;align=center;arcSize=4;whiteSpace=wrap;html=1;fillColor=#dae8fc;gradientColor=#7ea6e0;strokeColor=#6c8ebf;" parent="1" vertex="1">
          <mxGeometry x="550" y="510" width="160" height="120" as="geometry" />
        </mxCell>
        <mxCell id="5RMD4BezjyQq2ldkv20B-2" value="+nom de rôle&lt;br&gt;+Attribute2&lt;br&gt;+Attribute3" style="align=left;strokeColor=#d6b656;fillColor=#fff2cc;spacingLeft=4;fontSize=12;verticalAlign=top;resizable=0;rotatable=0;part=1;html=1;gradientColor=#ffd966;" parent="5RMD4BezjyQq2ldkv20B-1" vertex="1">
          <mxGeometry y="50" width="160" height="70" as="geometry" />
        </mxCell>
        <mxCell id="5RMD4BezjyQq2ldkv20B-3" value="Groupes" style="swimlane;childLayout=stackLayout;horizontal=1;startSize=50;horizontalStack=0;rounded=1;fontSize=14;fontStyle=0;strokeWidth=2;resizeParent=0;resizeLast=1;shadow=0;dashed=0;align=center;arcSize=4;whiteSpace=wrap;html=1;fillColor=#dae8fc;gradientColor=#7ea6e0;strokeColor=#6c8ebf;" parent="1" vertex="1">
          <mxGeometry x="650" y="50" width="160" height="120" as="geometry" />
        </mxCell>
        <mxCell id="5RMD4BezjyQq2ldkv20B-4" value="+nom de groupe&lt;br&gt;+nombre des utilisateurs&lt;br&gt;+Attribute3" style="align=left;strokeColor=#d6b656;fillColor=#fff2cc;spacingLeft=4;fontSize=12;verticalAlign=top;resizable=0;rotatable=0;part=1;html=1;gradientColor=#ffd966;" parent="5RMD4BezjyQq2ldkv20B-3" vertex="1">
          <mxGeometry y="50" width="160" height="70" as="geometry" />
        </mxCell>
        <mxCell id="5RMD4BezjyQq2ldkv20B-5" value="Messages" style="swimlane;childLayout=stackLayout;horizontal=1;startSize=50;horizontalStack=0;rounded=1;fontSize=14;fontStyle=0;strokeWidth=2;resizeParent=0;resizeLast=1;shadow=0;dashed=0;align=center;arcSize=4;whiteSpace=wrap;html=1;fillColor=#dae8fc;gradientColor=#7ea6e0;strokeColor=#6c8ebf;" parent="1" vertex="1">
          <mxGeometry x="-45" y="275" width="160" height="120" as="geometry" />
        </mxCell>
        <mxCell id="5RMD4BezjyQq2ldkv20B-6" value="+texte de message&lt;br&gt;+date&lt;br&gt;+émetteur&lt;br&gt;+destinataire" style="align=left;strokeColor=#d6b656;fillColor=#fff2cc;spacingLeft=4;fontSize=12;verticalAlign=top;resizable=0;rotatable=0;part=1;html=1;gradientColor=#ffd966;" parent="5RMD4BezjyQq2ldkv20B-5" vertex="1">
          <mxGeometry y="50" width="160" height="70" as="geometry" />
        </mxCell>
        <mxCell id="5RMD4BezjyQq2ldkv20B-7" value="Messages de groupe" style="swimlane;childLayout=stackLayout;horizontal=1;startSize=50;horizontalStack=0;rounded=1;fontSize=14;fontStyle=0;strokeWidth=2;resizeParent=0;resizeLast=1;shadow=0;dashed=0;align=center;arcSize=4;whiteSpace=wrap;html=1;fillColor=#dae8fc;gradientColor=#7ea6e0;strokeColor=#6c8ebf;" parent="1" vertex="1">
          <mxGeometry x="395" y="40" width="160" height="120" as="geometry" />
        </mxCell>
        <mxCell id="5RMD4BezjyQq2ldkv20B-8" value="+émetteur&lt;br&gt;+date&lt;br&gt;+texte de message&lt;br&gt;+destinataire" style="align=left;strokeColor=#d6b656;fillColor=#fff2cc;spacingLeft=4;fontSize=12;verticalAlign=top;resizable=0;rotatable=0;part=1;html=1;gradientColor=#ffd966;" parent="5RMD4BezjyQq2ldkv20B-7" vertex="1">
          <mxGeometry y="50" width="160" height="70" as="geometry" />
        </mxCell>
        <mxCell id="5RMD4BezjyQq2ldkv20B-20" style="edgeStyle=orthogonalEdgeStyle;rounded=0;orthogonalLoop=1;jettySize=auto;html=1;entryX=1.006;entryY=0.2;entryDx=0;entryDy=0;entryPerimeter=0;" parent="1" source="nqBFF6TNOds9ZoNXhfpZ-2" target="5RMD4BezjyQq2ldkv20B-3" edge="1">
          <mxGeometry relative="1" as="geometry" />
        </mxCell>
        <mxCell id="fBHS-X9BeHUpOfHcf2Rk-1" value="Utilisateurs" style="swimlane;childLayout=stackLayout;horizontal=1;startSize=50;horizontalStack=0;rounded=1;fontSize=14;fontStyle=0;strokeWidth=2;resizeParent=0;resizeLast=1;shadow=0;dashed=0;align=center;arcSize=4;whiteSpace=wrap;html=1;fillColor=#fff2cc;gradientColor=#ffd966;strokeColor=#d6b656;" vertex="1" parent="1">
          <mxGeometry x="315" y="330" width="160" height="120" as="geometry" />
        </mxCell>
        <mxCell id="fBHS-X9BeHUpOfHcf2Rk-2" value="+id&lt;br&gt;+nom d&#39;utilisateur&lt;br&gt;+Attribute3" style="align=left;strokeColor=#6c8ebf;fillColor=#dae8fc;spacingLeft=4;fontSize=12;verticalAlign=top;resizable=0;rotatable=0;part=1;html=1;gradientColor=#7ea6e0;" vertex="1" parent="fBHS-X9BeHUpOfHcf2Rk-1">
          <mxGeometry y="50" width="160" height="70" as="geometry" />
        </mxCell>
      </root>
    </mxGraphModel>
  </diagram>
</mxfile>
